<svg width="31" height="30" viewBox="0 0 31 30" fill="none" xmlns="http://www.w3.org/2000/svg">
<path d="M6.29175 21.5865C6.11466 21.5865 5.96623 21.5266 5.84644 21.4066C5.72664 21.2867 5.66675 21.138 5.66675 20.9607C5.66675 20.7834 5.72664 20.635 5.84644 20.5156C5.96623 20.3962 6.11466 20.3365 6.29175 20.3365H25.0417C25.2188 20.3365 25.3673 20.3965 25.4871 20.5165C25.6069 20.6364 25.6667 20.7851 25.6667 20.9624C25.6667 21.1397 25.6069 21.2881 25.4871 21.4075C25.3673 21.5269 25.2188 21.5865 25.0417 21.5865H6.29175ZM6.29175 15.625C6.11466 15.625 5.96623 15.565 5.84644 15.4451C5.72664 15.3251 5.66675 15.1765 5.66675 14.9992C5.66675 14.8218 5.72664 14.6735 5.84644 14.5541C5.96623 14.4347 6.11466 14.375 6.29175 14.375H25.0417C25.2188 14.375 25.3673 14.435 25.4871 14.555C25.6069 14.6749 25.6667 14.8235 25.6667 15.0009C25.6667 15.1782 25.6069 15.3265 25.4871 15.4459C25.3673 15.5653 25.2188 15.625 25.0417 15.625H6.29175ZM6.29175 9.66348C6.11466 9.66348 5.96623 9.6035 5.84644 9.48355C5.72664 9.36359 5.66675 9.21495 5.66675 9.03764C5.66675 8.8603 5.72664 8.71194 5.84644 8.59254C5.96623 8.47317 6.11466 8.41348 6.29175 8.41348H25.0417C25.2188 8.41348 25.3673 8.47345 25.4871 8.59339C25.6069 8.71335 25.6667 8.86199 25.6667 9.03933C25.6667 9.21664 25.6069 9.36499 25.4871 9.48439C25.3673 9.60378 25.2188 9.66348 25.0417 9.66348H6.29175Z" fill="#E5D2BC"/>
</svg>
