<svg width="30" height="30" viewBox="0 0 30 30" fill="none" xmlns="http://www.w3.org/2000/svg">
<path d="M9.13463 26.3943C8.60738 26.3943 8.16306 26.2136 7.80169 25.8522C7.44029 25.4908 7.25959 25.0465 7.25959 24.5192C7.25959 23.992 7.44029 23.5477 7.80169 23.1863C8.16306 22.8249 8.60738 22.6442 9.13463 22.6442C9.66186 22.6442 10.1062 22.8249 10.4676 23.1863C10.8289 23.5477 11.0096 23.992 11.0096 24.5192C11.0096 25.0465 10.8289 25.4908 10.4676 25.8522C10.1062 26.2136 9.66186 26.3943 9.13463 26.3943ZM20.8654 26.3943C20.3381 26.3943 19.8938 26.2136 19.5324 25.8522C19.1711 25.4908 18.9904 25.0465 18.9904 24.5192C18.9904 23.992 19.1711 23.5477 19.5324 23.1863C19.8938 22.8249 20.3381 22.6442 20.8654 22.6442C21.3926 22.6442 21.8369 22.8249 22.1983 23.1863C22.5597 23.5477 22.7404 23.992 22.7404 24.5192C22.7404 25.0465 22.5597 25.4908 22.1983 25.8522C21.8369 26.2136 21.3926 26.3943 20.8654 26.3943ZM7.35097 6.875L10.6875 13.8942H18.9808C19.125 13.8942 19.2532 13.8582 19.3654 13.7861C19.4776 13.7139 19.5737 13.6138 19.6538 13.4856L22.9231 7.54806C23.0192 7.37179 23.0273 7.21555 22.9471 7.07934C22.867 6.94311 22.7308 6.875 22.5385 6.875H7.35097ZM6.74038 5.625H23.0144C23.5577 5.625 23.9664 5.84655 24.2404 6.28966C24.5144 6.73276 24.5288 7.1891 24.2837 7.65866L20.7115 14.1683C20.5304 14.4728 20.2953 14.7115 20.006 14.8846C19.7168 15.0577 19.399 15.1443 19.0529 15.1443H10.125L8.60578 17.9327C8.47757 18.125 8.47356 18.3333 8.59375 18.5577C8.71394 18.782 8.89423 18.8942 9.13463 18.8942H22.7404V20.1443H9.13463C8.40546 20.1443 7.86139 19.837 7.50241 19.2224C7.14343 18.6078 7.13462 17.9904 7.47597 17.3702L9.35575 14.0192L4.75959 4.375H2.5V3.125H5.55288L6.74038 5.625Z" fill="#E5D2BC"/>
<rect x="9" y="2" width="11" height="11" rx="5.5" fill="#E5D2BC"/>
<path d="M11.87 7.9C11.87 7.38667 11.9333 6.93333 12.06 6.54C12.1933 6.14667 12.3667 5.82 12.58 5.56C12.7933 5.29333 13.0333 5.09333 13.3 4.96C13.5733 4.82 13.85 4.75 14.13 4.75C14.41 4.75 14.6867 4.82 14.96 4.96C15.2333 5.09333 15.4733 5.29333 15.68 5.56C15.8933 5.82 16.0633 6.14667 16.19 6.54C16.3233 6.93333 16.39 7.38667 16.39 7.9C16.39 8.42 16.3233 8.88 16.19 9.28C16.0633 9.67333 15.8933 10.0067 15.68 10.28C15.4733 10.5467 15.2333 10.75 14.96 10.89C14.6867 11.03 14.41 11.1 14.13 11.1C13.85 11.1 13.5733 11.03 13.3 10.89C13.0333 10.75 12.7933 10.5467 12.58 10.28C12.3667 10.0067 12.1933 9.67333 12.06 9.28C11.9333 8.88 11.87 8.42 11.87 7.9ZM15.76 8.16C15.76 7.68 15.7067 7.25667 15.6 6.89C15.4933 6.51667 15.3533 6.20667 15.18 5.96C15.0133 5.70667 14.82 5.51667 14.6 5.39C14.3867 5.25667 14.1667 5.19 13.94 5.19C13.7133 5.19 13.5067 5.25667 13.32 5.39C13.14 5.51667 12.9867 5.68667 12.86 5.9C12.7333 6.11333 12.6333 6.36 12.56 6.64C12.4933 6.92 12.46 7.21333 12.46 7.52C12.46 7.88667 12.5033 8.26 12.59 8.64C12.6767 9.01333 12.8 9.35333 12.96 9.66C13.12 9.96 13.31 10.2067 13.53 10.4C13.7567 10.5933 14.0033 10.69 14.27 10.69C14.4633 10.69 14.65 10.6367 14.83 10.53C15.01 10.4167 15.1667 10.2533 15.3 10.04C15.44 9.82667 15.55 9.56333 15.63 9.25C15.7167 8.93667 15.76 8.57333 15.76 8.16Z" fill="#201E1C"/>
</svg>
