<svg width="120" height="119" viewBox="0 0 120 119" fill="none" xmlns="http://www.w3.org/2000/svg">
<path d="M119 59.5C119 91.8008 92.5927 118 60 118C27.4073 118 1 91.8008 1 59.5C1 27.1992 27.4073 1 60 1C92.5927 1 119 27.1992 119 59.5Z" stroke="#201E1C" stroke-width="2"/>
<path d="M79.8749 83.1C75.1749 83.1 70.2874 81.8625 65.2124 79.3875C60.1374 76.9125 55.3874 73.45 50.9624 69C46.5374 64.55 43.0874 59.8 40.6124 54.75C38.1374 49.7 36.8999 44.825 36.8999 40.125C36.8999 39.2036 37.1999 38.4357 37.7999 37.8215C38.3999 37.2072 39.1499 36.9 40.0499 36.9H46.0499C46.8999 36.9 47.6374 37.1625 48.2624 37.6875C48.8874 38.2125 49.3249 38.9 49.5749 39.75L50.9249 45.9C51.0749 46.75 51.0499 47.5 50.8499 48.15C50.6499 48.8 50.2999 49.325 49.7999 49.725L43.4249 55.5C44.7249 57.85 46.1374 60.0125 47.6624 61.9875C49.1874 63.9625 50.7999 65.825 52.4999 67.575C54.2999 69.375 56.2499 71.05 58.3499 72.6C60.4499 74.15 62.7749 75.625 65.3249 77.025L71.5499 70.65C72.0499 70.1 72.5874 69.75 73.1624 69.6C73.7374 69.45 74.3999 69.425 75.1499 69.525L80.2499 70.575C81.0999 70.775 81.7874 71.2 82.3124 71.85C82.8374 72.5 83.0999 73.25 83.0999 74.1V79.95C83.0999 80.85 82.7928 81.6 82.1785 82.2C81.5642 82.8 80.7964 83.1 79.8749 83.1ZM42.4499 53.55L48.4499 48.15C48.6999 47.95 48.8624 47.675 48.9374 47.325C49.0124 46.975 48.9999 46.65 48.8999 46.35L47.5499 40.2C47.4499 39.8 47.2749 39.5 47.0249 39.3C46.7749 39.1 46.4499 39 46.0499 39H40.0499C39.7499 39 39.4999 39.1 39.2999 39.3C39.0999 39.5 38.9999 39.75 38.9999 40.05C38.9999 42.1 39.3124 44.275 39.9374 46.575C40.5624 48.875 41.3999 51.2 42.4499 53.55ZM67.3499 78C69.3999 79.05 71.6124 79.8125 73.9874 80.2875C76.3624 80.7625 78.3499 81 79.9499 81C80.2499 81 80.4999 80.9 80.6999 80.7C80.8999 80.5 80.9999 80.25 80.9999 79.95V74.1C80.9999 73.7 80.8999 73.375 80.6999 73.125C80.4999 72.875 80.1999 72.7 79.7999 72.6L74.6999 71.55C74.3999 71.45 74.1374 71.4375 73.9124 71.5125C73.6874 71.5875 73.4499 71.75 73.1999 72L67.3499 78Z" fill="#201E1C"/>
</svg>
