<svg width="72" height="72" viewBox="0 0 72 72" fill="none" xmlns="http://www.w3.org/2000/svg">
<path d="M18.4499 62.1V35.025H20.5499V60H43.4999V46.35L50.7749 39C52.3749 37.4 53.6124 35.5625 54.4874 33.4875C55.3624 31.4125 55.7999 29.25 55.7999 27C55.7999 24.75 55.3749 22.6 54.5249 20.55C53.6749 18.5 52.4499 16.675 50.8499 15.075L47.5499 11.7L37.1999 22.05H27.1499L21.9749 27.225L20.4749 25.8L26.3249 19.95H36.3749L47.5499 8.77502L52.3499 13.5C54.1499 15.3 55.5124 17.3625 56.4374 19.6875C57.3624 22.0125 57.8499 24.45 57.8999 27C57.8499 29.55 57.3624 31.9875 56.4374 34.3125C55.5124 36.6375 54.1499 38.7 52.3499 40.5L45.5999 47.175V62.1H18.4499ZM31.1999 49.125L17.0249 35.025C16.6249 34.625 16.3374 34.175 16.1624 33.675C15.9874 33.175 15.8999 32.65 15.8999 32.1C15.8999 31.55 15.9874 31.0375 16.1624 30.5625C16.3374 30.0875 16.6249 29.65 17.0249 29.25L21.9749 24.3L29.9249 32.1C31.1749 33.35 32.1124 34.7625 32.7374 36.3375C33.3624 37.9125 33.6749 39.575 33.6749 41.325C33.6749 42.725 33.4749 44.0875 33.0749 45.4125C32.6749 46.7375 32.0499 47.975 31.1999 49.125Z" fill="black"/>
</svg>
