<svg width="121" height="119" viewBox="0 0 121 119" fill="none" xmlns="http://www.w3.org/2000/svg">
<path d="M119.5 59.5C119.5 91.8008 93.0927 118 60.5 118C27.9073 118 1.5 91.8008 1.5 59.5C1.5 27.1992 27.9073 1 60.5 1C93.0927 1 119.5 27.1992 119.5 59.5Z" stroke="#201E1C" stroke-width="2"/>
<path d="M61.5499 59.55V46.05C61.5499 45.7525 61.449 45.5032 61.2473 45.3019C61.0455 45.1007 60.7955 45 60.4973 45C60.199 45 59.9499 45.1007 59.7499 45.3019C59.5499 45.5032 59.4499 45.7525 59.4499 46.05V59.55C59.4499 59.8283 59.4999 60.0978 59.5999 60.3587C59.6999 60.6196 59.8749 60.875 60.1249 61.125L70.9999 72C71.1999 72.2 71.4374 72.3125 71.7124 72.3375C71.9874 72.3625 72.2499 72.25 72.4999 72C72.7499 71.75 72.8749 71.5 72.8749 71.25C72.8749 71 72.7499 70.75 72.4999 70.5L61.5499 59.55ZM60.513 86.1C56.9043 86.1 53.511 85.4152 50.3331 84.0457C47.1551 82.6761 44.3907 80.8174 42.0399 78.4696C39.6892 76.1217 37.8282 73.3609 36.4569 70.187C35.0856 67.0131 34.3999 63.6218 34.3999 60.0131C34.3999 56.4044 35.0847 53.0111 36.4542 49.8332C37.8238 46.6552 39.6825 43.8909 42.0303 41.5401C44.3782 39.1893 47.1391 37.3283 50.313 35.957C53.4869 34.5857 56.8782 33.9 60.4869 33.9C64.0956 33.9 67.4888 34.5848 70.6667 35.9543C73.8447 37.3239 76.6091 39.1827 78.9598 41.5304C81.3106 43.8783 83.1716 46.6392 84.5429 49.8131C85.9142 52.987 86.5999 56.3783 86.5999 59.987C86.5999 63.5957 85.9151 66.989 84.5456 70.1669C83.176 73.3448 81.3173 76.1092 78.9695 78.46C76.6216 80.8107 73.8607 82.6718 70.6868 84.0431C67.513 85.4144 64.1217 86.1 60.513 86.1ZM60.4999 84C67.1499 84 72.8124 81.6625 77.4874 76.9875C82.1624 72.3125 84.4999 66.65 84.4999 60C84.4999 53.35 82.1624 47.6875 77.4874 43.0125C72.8124 38.3375 67.1499 36 60.4999 36C53.8499 36 48.1874 38.3375 43.5124 43.0125C38.8374 47.6875 36.4999 53.35 36.4999 60C36.4999 66.65 38.8374 72.3125 43.5124 76.9875C48.1874 81.6625 53.8499 84 60.4999 84Z" fill="#201E1C"/>
</svg>
