<svg width="120" height="120" viewBox="0 0 120 120" fill="none" xmlns="http://www.w3.org/2000/svg">
<circle cx="60" cy="60" r="59" stroke="#E5D2BC" stroke-width="2"/>
<path d="M61.65 59.65V46.15C61.65 45.8525 61.5491 45.6031 61.3474 45.4019C61.1456 45.2006 60.8956 45.1 60.5974 45.1C60.2991 45.1 60.05 45.2006 59.85 45.4019C59.65 45.6031 59.55 45.8525 59.55 46.15V59.65C59.55 59.9282 59.6 60.1978 59.7 60.4587C59.8 60.7196 59.975 60.975 60.225 61.225L71.1 72.1C71.3 72.3 71.5375 72.4125 71.8125 72.4375C72.0875 72.4625 72.35 72.35 72.6 72.1C72.85 71.85 72.975 71.6 72.975 71.35C72.975 71.1 72.85 70.85 72.6 70.6L61.65 59.65ZM60.613 86.2C57.0043 86.2 53.611 85.5152 50.4331 84.1457C47.2552 82.7761 44.4908 80.9174 42.14 78.5696C39.7893 76.2217 37.9282 73.4608 36.5569 70.2869C35.1856 67.113 34.5 63.7217 34.5 60.113C34.5 56.5043 35.1848 53.1111 36.5543 49.9332C37.9239 46.7552 39.7826 43.9908 42.1304 41.6401C44.4783 39.2893 47.2391 37.4283 50.413 36.057C53.5869 34.6857 56.9782 34 60.5869 34C64.1956 34 67.5889 34.6848 70.7668 36.0543C73.9448 37.4239 76.7091 39.2826 79.0599 41.6304C81.4107 43.9783 83.2717 46.7391 84.643 49.913C86.0143 53.0869 86.7 56.4782 86.7 60.0869C86.7 63.6956 86.0152 67.0889 84.6457 70.2668C83.2761 73.4448 81.4174 76.2092 79.0696 78.56C76.7217 80.9107 73.9608 82.7717 70.7869 84.143C67.613 85.5143 64.2217 86.2 60.613 86.2ZM60.6 84.1C67.25 84.1 72.9125 81.7625 77.5875 77.0875C82.2625 72.4125 84.6 66.75 84.6 60.1C84.6 53.45 82.2625 47.7875 77.5875 43.1125C72.9125 38.4375 67.25 36.1 60.6 36.1C53.95 36.1 48.2875 38.4375 43.6125 43.1125C38.9375 47.7875 36.6 53.45 36.6 60.1C36.6 66.75 38.9375 72.4125 43.6125 77.0875C48.2875 81.7625 53.95 84.1 60.6 84.1Z" fill="#E5D2BC"/>
</svg>
