<svg width="120" height="120" viewBox="0 0 120 120" fill="none" xmlns="http://www.w3.org/2000/svg">
<circle cx="60" cy="60" r="59" stroke="#E5D2BC" stroke-width="2"/>
<path d="M59.9999 83.325C65.4999 78.625 69.9374 73.6625 73.3124 68.4375C76.6874 63.2125 78.3749 58.725 78.3749 54.975C78.3749 49.475 76.6374 44.925 73.1624 41.325C69.6874 37.725 65.2999 35.925 59.9999 35.925C54.6999 35.925 50.3124 37.725 46.8374 41.325C43.3624 44.925 41.6249 49.475 41.6249 54.975C41.6249 58.725 43.3124 63.2125 46.6874 68.4375C50.0624 73.6625 54.4999 78.625 59.9999 83.325ZM59.9999 84.975C59.5999 84.975 59.1999 84.9125 58.7999 84.7875C58.3999 84.6625 58.0249 84.45 57.6749 84.15C55.8749 82.5 53.9249 80.5375 51.8249 78.2625C49.7249 75.9875 47.7624 73.575 45.9374 71.025C44.1124 68.475 42.5874 65.825 41.3624 63.075C40.1374 60.325 39.5249 57.625 39.5249 54.975C39.5249 48.975 41.4874 43.9625 45.4124 39.9375C49.3374 35.9125 54.1999 33.9 59.9999 33.9C65.7999 33.9 70.6624 35.9125 74.5874 39.9375C78.5124 43.9625 80.4749 48.975 80.4749 54.975C80.4749 57.625 79.8624 60.3125 78.6374 63.0375C77.4124 65.7625 75.8999 68.4125 74.0999 70.9875C72.2999 73.5625 70.3499 75.975 68.2499 78.225C66.1499 80.475 64.1999 82.425 62.3999 84.075C62.0678 84.375 61.6905 84.6 61.2679 84.75C60.8452 84.9 60.4226 84.975 59.9999 84.975ZM60.0132 58.95C61.2543 58.95 62.3124 58.5081 63.1874 57.6242C64.0624 56.7404 64.4999 55.6779 64.4999 54.4367C64.4999 53.1956 64.058 52.1375 63.1741 51.2625C62.2903 50.3875 61.2278 49.95 59.9866 49.95C58.7455 49.95 57.6874 50.3919 56.8124 51.2758C55.9374 52.1596 55.4999 53.2221 55.4999 54.4633C55.4999 55.7044 55.9418 56.7625 56.8257 57.6375C57.7095 58.5125 58.772 58.95 60.0132 58.95Z" fill="#E5D2BC"/>
</svg>
