<svg width="35" height="35" viewBox="0 0 35 35" fill="none" xmlns="http://www.w3.org/2000/svg">
<rect width="35" height="35" rx="8" fill="#E5D2BC"/>
<path d="M21.708 26.68H21.868C22.0173 26.68 22.156 26.6267 22.284 26.52C22.412 26.392 22.5187 26.2427 22.604 26.072C22.7107 25.88 22.7853 25.688 22.828 25.496C22.8707 25.2827 22.892 25.0907 22.892 24.92V16.216H12.652V24.92C12.652 25.0907 12.6733 25.2827 12.716 25.496C12.7587 25.688 12.8227 25.8693 12.908 26.04C12.9933 26.2107 13.0893 26.36 13.196 26.488C13.324 26.616 13.4733 26.68 13.644 26.68H13.804V27H9.324V26.68H9.484C9.63333 26.68 9.772 26.6267 9.9 26.52C10.028 26.392 10.1347 26.2427 10.22 26.072C10.3267 25.88 10.4013 25.688 10.444 25.496C10.4867 25.2827 10.508 25.0907 10.508 24.92V7.864C10.508 7.71467 10.4867 7.544 10.444 7.352C10.4013 7.16 10.3373 6.97867 10.252 6.808C10.1667 6.63733 10.06 6.49866 9.932 6.392C9.804 6.264 9.65467 6.2 9.484 6.2H9.324V5.88H13.804V6.2H13.644C13.4733 6.2 13.324 6.264 13.196 6.392C13.068 6.49866 12.9613 6.63733 12.876 6.808C12.812 6.97867 12.7587 7.16 12.716 7.352C12.6733 7.544 12.652 7.71467 12.652 7.864V15.096H22.892V7.864C22.892 7.71467 22.8707 7.544 22.828 7.352C22.7853 7.16 22.7213 6.97867 22.636 6.808C22.5507 6.63733 22.444 6.49866 22.316 6.392C22.188 6.264 22.0387 6.2 21.868 6.2H21.708V5.88H26.188V6.2H26.028C25.8573 6.2 25.708 6.264 25.58 6.392C25.452 6.49866 25.3453 6.63733 25.26 6.808C25.196 6.97867 25.1427 7.16 25.1 7.352C25.0573 7.544 25.036 7.71467 25.036 7.864V24.92C25.036 25.0907 25.0573 25.2827 25.1 25.496C25.164 25.688 25.2387 25.8693 25.324 26.04C25.4093 26.2107 25.5053 26.36 25.612 26.488C25.74 26.616 25.8787 26.68 26.028 26.68H26.188V27H21.708V26.68Z" fill="#201E1C"/>
<path d="M18 11L24.0622 15.5H11.9378L18 11Z" fill="#201E1C"/>
<path d="M12 25V16H24V25C20.4362 24.4412 17.7572 24.4677 12 25Z" stroke="#201E1C"/>
<path d="M20 11H21V13.5L20 13V11Z" fill="#201E1C"/>
</svg>
