<svg width="30" height="30" viewBox="0 0 30 30" fill="none" xmlns="http://www.w3.org/2000/svg">
<path d="M12.7805 15.4933L19.7384 21.7268C19.8918 21.8641 19.9737 22.0326 19.9842 22.2321C19.9947 22.4316 19.9128 22.6094 19.7384 22.7657C19.564 22.9219 19.3708 23 19.1586 23C18.9464 23 18.7531 22.9219 18.5788 22.7657L11.3876 16.3233C11.2448 16.1954 11.1444 16.0646 11.0866 15.9309C11.0289 15.7973 11 15.6514 11 15.4933C11 15.3352 11.0289 15.1894 11.0866 15.0558C11.1444 14.9221 11.2448 14.7913 11.3876 14.6634L18.5788 8.22101C18.7321 8.08362 18.9201 8.01022 19.1428 8.0008C19.3655 7.99138 19.564 8.06478 19.7384 8.22101C19.9128 8.37723 20 8.55038 20 8.74046C20 8.93055 19.9128 9.1037 19.7384 9.25992L12.7805 15.4933Z" fill="#201E1C"/>
</svg>
