<svg width="30" height="30" viewBox="0 0 30 30" fill="none" xmlns="http://www.w3.org/2000/svg">
<path d="M15 24.7187C17.2917 22.7604 19.1406 20.6927 20.5469 18.5156C21.9531 16.3385 22.6562 14.4687 22.6562 12.9062C22.6562 10.6146 21.9323 8.71875 20.4844 7.21875C19.0365 5.71875 17.2083 4.96875 15 4.96875C12.7917 4.96875 10.9635 5.71875 9.51562 7.21875C8.06771 8.71875 7.34375 10.6146 7.34375 12.9062C7.34375 14.4687 8.04688 16.3385 9.45312 18.5156C10.8594 20.6927 12.7083 22.7604 15 24.7187ZM15 25.4062C14.8333 25.4062 14.6667 25.3802 14.5 25.3281C14.3333 25.276 14.1771 25.1875 14.0312 25.0625C13.2812 24.375 12.4688 23.5573 11.5938 22.6094C10.7188 21.6615 9.90104 20.6562 9.14062 19.5937C8.38021 18.5312 7.74479 17.4271 7.23438 16.2812C6.72396 15.1354 6.46875 14.0104 6.46875 12.9062C6.46875 10.4062 7.28646 8.31771 8.92188 6.64062C10.5573 4.96354 12.5833 4.125 15 4.125C17.4167 4.125 19.4427 4.96354 21.0781 6.64062C22.7135 8.31771 23.5312 10.4062 23.5312 12.9062C23.5312 14.0104 23.276 15.1302 22.7656 16.2656C22.2552 17.401 21.625 18.5052 20.875 19.5781C20.125 20.651 19.3125 21.6562 18.4375 22.5937C17.5625 23.5312 16.75 24.3437 16 25.0312C15.8616 25.1562 15.7044 25.25 15.5283 25.3125C15.3522 25.375 15.1761 25.4062 15 25.4062ZM15.0055 14.5625C15.5227 14.5625 15.9635 14.3784 16.3281 14.0101C16.6927 13.6418 16.875 13.1991 16.875 12.682C16.875 12.1648 16.6909 11.724 16.3226 11.3594C15.9543 10.9948 15.5116 10.8125 14.9945 10.8125C14.4773 10.8125 14.0365 10.9966 13.6719 11.3649C13.3073 11.7332 13.125 12.1759 13.125 12.693C13.125 13.2102 13.3091 13.651 13.6774 14.0156C14.0457 14.3802 14.4884 14.5625 15.0055 14.5625Z" fill="#201E1C"/>
</svg>
