<svg width="173" height="35" viewBox="0 0 173 35" fill="none" xmlns="http://www.w3.org/2000/svg">
<path d="M14.208 26.68H14.368C14.5173 26.68 14.656 26.6267 14.784 26.52C14.912 26.392 15.0187 26.2427 15.104 26.072C15.2107 25.88 15.2853 25.688 15.328 25.496C15.3707 25.2827 15.392 25.0907 15.392 24.92V16.216H5.152V24.92C5.152 25.0907 5.17333 25.2827 5.216 25.496C5.25867 25.688 5.32267 25.8693 5.408 26.04C5.49333 26.2107 5.58933 26.36 5.696 26.488C5.824 26.616 5.97333 26.68 6.144 26.68H6.304V27H1.824V26.68H1.984C2.13333 26.68 2.272 26.6267 2.4 26.52C2.528 26.392 2.63467 26.2427 2.72 26.072C2.82667 25.88 2.90133 25.688 2.944 25.496C2.98667 25.2827 3.008 25.0907 3.008 24.92V7.864C3.008 7.71467 2.98667 7.544 2.944 7.352C2.90133 7.16 2.83733 6.97867 2.752 6.808C2.66667 6.63733 2.56 6.49866 2.432 6.392C2.304 6.264 2.15467 6.2 1.984 6.2H1.824V5.88H6.304V6.2H6.144C5.97333 6.2 5.824 6.264 5.696 6.392C5.568 6.49866 5.46133 6.63733 5.376 6.808C5.312 6.97867 5.25867 7.16 5.216 7.352C5.17333 7.544 5.152 7.71467 5.152 7.864V15.096H15.392V7.864C15.392 7.71467 15.3707 7.544 15.328 7.352C15.2853 7.16 15.2213 6.97867 15.136 6.808C15.0507 6.63733 14.944 6.49866 14.816 6.392C14.688 6.264 14.5387 6.2 14.368 6.2H14.208V5.88H18.688V6.2H18.528C18.3573 6.2 18.208 6.264 18.08 6.392C17.952 6.49866 17.8453 6.63733 17.76 6.808C17.696 6.97867 17.6427 7.16 17.6 7.352C17.5573 7.544 17.536 7.71467 17.536 7.864V24.92C17.536 25.0907 17.5573 25.2827 17.6 25.496C17.664 25.688 17.7387 25.8693 17.824 26.04C17.9093 26.2107 18.0053 26.36 18.112 26.488C18.24 26.616 18.3787 26.68 18.528 26.68H18.688V27H14.208V26.68ZM28.0663 27.224C26.9996 27.224 26.0396 27.0533 25.1863 26.712C24.3329 26.3493 23.5969 25.8693 22.9783 25.272C22.3809 24.6533 21.9116 23.928 21.5703 23.096C21.2503 22.264 21.0903 21.3573 21.0903 20.376C21.0903 19.3307 21.2716 18.3813 21.6343 17.528C21.9969 16.6533 22.4983 15.9067 23.1383 15.288C23.7783 14.6693 24.5356 14.1893 25.4103 13.848C26.2849 13.5067 27.2343 13.336 28.2583 13.336C29.2823 13.336 30.2209 13.5067 31.0743 13.848C31.9276 14.168 32.6636 14.6267 33.2823 15.224C33.9009 15.8213 34.3809 16.536 34.7223 17.368C35.0636 18.1787 35.2343 19.0747 35.2343 20.056C35.2343 20.9733 35.0743 21.8693 34.7543 22.744C34.4556 23.5973 33.9969 24.3547 33.3783 25.016C32.7809 25.6773 32.0343 26.2107 31.1383 26.616C30.2636 27.0213 29.2396 27.224 28.0663 27.224ZM27.8743 14.392C27.1063 14.4347 26.4236 14.6267 25.8263 14.968C25.2503 15.288 24.7596 15.7147 24.3543 16.248C23.9703 16.76 23.6716 17.3467 23.4583 18.008C23.2663 18.6693 23.1703 19.3413 23.1703 20.024C23.1703 20.8133 23.2876 21.5813 23.5223 22.328C23.7783 23.0533 24.1303 23.704 24.5783 24.28C25.0476 24.856 25.6023 25.3147 26.2423 25.656C26.8823 25.9973 27.5969 26.168 28.3863 26.168C29.1756 26.168 29.8689 25.9973 30.4663 25.656C31.0849 25.3147 31.5969 24.8773 32.0023 24.344C32.4076 23.7893 32.7063 23.1707 32.8983 22.488C33.1116 21.8053 33.2183 21.1227 33.2183 20.44C33.2183 19.736 33.1116 19.032 32.8983 18.328C32.6849 17.6027 32.3543 16.952 31.9063 16.376C31.4583 15.7787 30.8929 15.2987 30.2103 14.936C29.5489 14.5733 28.7703 14.392 27.8743 14.392ZM58.5763 24.92C58.5763 25.0907 58.5976 25.2827 58.6403 25.496C58.6829 25.688 58.7469 25.8693 58.8323 26.04C58.9176 26.2107 59.0136 26.36 59.1203 26.488C59.2483 26.616 59.3976 26.68 59.5683 26.68V27H55.4083V26.68C55.5789 26.68 55.7283 26.616 55.8563 26.488C55.9843 26.36 56.0909 26.2107 56.1763 26.04C56.2829 25.8693 56.3576 25.688 56.4003 25.496C56.4429 25.2827 56.4643 25.0907 56.4643 24.92V18.008C56.4643 17.5173 56.3896 17.048 56.2403 16.6C56.1123 16.152 55.9096 15.768 55.6323 15.448C55.3549 15.1067 55.0136 14.84 54.6083 14.648C54.2029 14.4347 53.7443 14.328 53.2323 14.328C52.6563 14.328 52.1549 14.4667 51.7283 14.744C51.3229 15 50.9816 15.32 50.7043 15.704C50.4483 16.088 50.2563 16.4827 50.1283 16.888C50.0003 17.272 49.9363 17.592 49.9363 17.848V24.92C49.9363 25.0907 49.9576 25.2827 50.0003 25.496C50.0429 25.688 50.1069 25.8693 50.1923 26.04C50.2989 26.2107 50.4056 26.36 50.5123 26.488C50.6403 26.616 50.7896 26.68 50.9603 26.68V27H46.8323V26.68C46.9816 26.68 47.1203 26.616 47.2483 26.488C47.3763 26.36 47.4829 26.2107 47.5683 26.04C47.6749 25.8693 47.7496 25.688 47.7923 25.496C47.8349 25.2827 47.8563 25.0907 47.8563 24.92V17.816C47.8563 17.304 47.7603 16.8347 47.5683 16.408C47.3976 15.96 47.1523 15.5867 46.8323 15.288C46.5336 14.9893 46.1816 14.7547 45.7763 14.584C45.3923 14.4133 44.9976 14.328 44.5923 14.328C44.0376 14.328 43.5469 14.4347 43.1203 14.648C42.7149 14.8613 42.3736 15.128 42.0963 15.448C41.8403 15.768 41.6376 16.12 41.4883 16.504C41.3603 16.8667 41.2963 17.2187 41.2963 17.56V24.92C41.2963 25.0907 41.3176 25.2827 41.3602 25.496C41.4029 25.688 41.4669 25.8693 41.5523 26.04C41.6589 26.2107 41.7656 26.36 41.8723 26.488C42.0003 26.616 42.1496 26.68 42.3203 26.68V27H38.1923V26.68C38.3416 26.68 38.4803 26.616 38.6083 26.488C38.7363 26.36 38.8429 26.2107 38.9283 26.04C39.0349 25.8693 39.1096 25.688 39.1523 25.496C39.1949 25.2827 39.2163 25.0907 39.2163 24.92V16.376C39.2163 16.2053 39.2056 16.0133 39.1843 15.8C39.1629 15.5867 39.1203 15.384 39.0563 15.192C38.9923 15 38.8856 14.84 38.7363 14.712C38.5869 14.584 38.3843 14.52 38.1283 14.52V14.232L41.2963 13.176V14.808C41.6163 14.4453 42.0536 14.0933 42.6083 13.752C43.1843 13.4107 43.9309 13.24 44.8483 13.24C45.4456 13.24 45.9789 13.3253 46.4483 13.496C46.9176 13.6667 47.3229 13.8907 47.6643 14.168C48.0269 14.424 48.3363 14.7227 48.5923 15.064C48.8483 15.4053 49.0616 15.736 49.2323 16.056C49.4029 15.736 49.6056 15.416 49.8403 15.096C50.0749 14.7547 50.3523 14.4453 50.6723 14.168C51.0136 13.8907 51.4083 13.6667 51.8563 13.496C52.3256 13.3253 52.8696 13.24 53.4883 13.24C54.6829 13.24 55.6216 13.4533 56.3043 13.88C56.9869 14.3067 57.4883 14.8187 57.8083 15.416C58.1496 16.0133 58.3629 16.6427 58.4483 17.304C58.5336 17.944 58.5763 18.488 58.5763 18.936V24.92ZM64.6063 20.536C64.6916 21.2827 64.8729 21.9973 65.1503 22.68C65.4276 23.3413 65.7903 23.928 66.2383 24.44C66.7076 24.952 67.2729 25.368 67.9343 25.688C68.5956 25.9867 69.3636 26.136 70.2383 26.136C70.7076 26.136 71.1983 26.072 71.7103 25.944C72.2436 25.7947 72.7343 25.592 73.1823 25.336C73.6303 25.08 74.0249 24.7707 74.3663 24.408C74.7289 24.024 74.9743 23.5973 75.1023 23.128H75.3903V25.528C75.2623 25.528 75.1129 25.5707 74.9423 25.656C74.7929 25.7413 74.6116 25.848 74.3983 25.976C73.9716 26.232 73.3956 26.5093 72.6703 26.808C71.9449 27.0853 70.9849 27.224 69.7903 27.224C68.8303 27.224 67.9129 27.0853 67.0383 26.808C66.1849 26.5307 65.4276 26.104 64.7663 25.528C64.1049 24.952 63.5716 24.216 63.1663 23.32C62.7823 22.424 62.5903 21.3573 62.5903 20.12C62.5903 19.3307 62.7183 18.5307 62.9743 17.72C63.2516 16.9093 63.6569 16.184 64.1903 15.544C64.7449 14.8827 65.4489 14.3493 66.3023 13.944C67.1556 13.5387 68.1796 13.336 69.3743 13.336C70.4409 13.336 71.3689 13.5173 72.1583 13.88C72.9689 14.2427 73.6303 14.744 74.1423 15.384C74.6756 16.024 75.0703 16.7813 75.3263 17.656C75.5823 18.5307 75.7103 19.4907 75.7103 20.536H64.6063ZM69.2463 14.392C68.4996 14.392 67.8489 14.5413 67.2943 14.84C66.7609 15.1387 66.3023 15.5227 65.9183 15.992C65.5343 16.4613 65.2356 16.9947 65.0223 17.592C64.8089 18.1893 64.6703 18.7867 64.6063 19.384H73.7263C73.7049 18.7653 73.5876 18.1573 73.3743 17.56C73.1823 16.9627 72.9049 16.4293 72.5423 15.96C72.1796 15.4907 71.7209 15.1173 71.1663 14.84C70.6116 14.5413 69.9716 14.392 69.2463 14.392ZM93.538 13.336C94.69 13.336 95.682 13.528 96.514 13.912C97.3673 14.296 98.0713 14.808 98.626 15.448C99.1807 16.088 99.5967 16.824 99.874 17.656C100.151 18.4667 100.29 19.2987 100.29 20.152C100.29 21.0267 100.151 21.8907 99.874 22.744C99.5967 23.576 99.17 24.3333 98.594 25.016C98.0393 25.6773 97.346 26.2107 96.514 26.616C95.682 27.0213 94.722 27.224 93.634 27.224C92.8233 27.224 92.0873 27.064 91.426 26.744C90.7647 26.4027 90.242 25.9973 89.858 25.528V27H86.722V26.68C86.8713 26.68 87.01 26.616 87.138 26.488C87.266 26.36 87.3727 26.2107 87.458 26.04C87.5647 25.8693 87.6393 25.688 87.682 25.496C87.7247 25.2827 87.746 25.0907 87.746 24.92V8.6C87.746 8.23733 87.6927 7.896 87.586 7.576C87.4793 7.256 87.17 7.08533 86.658 7.064V6.744L89.858 5.752V14.904C90.3487 14.4133 90.9247 14.0293 91.586 13.752C92.2687 13.4747 92.9193 13.336 93.538 13.336ZM93.858 26.136C94.626 26.0933 95.2873 25.912 95.842 25.592C96.3967 25.2507 96.8553 24.824 97.218 24.312C97.602 23.8 97.8793 23.224 98.05 22.584C98.242 21.9227 98.338 21.2507 98.338 20.568C98.338 19.8 98.2313 19.0533 98.018 18.328C97.8047 17.6027 97.4847 16.952 97.058 16.376C96.6527 15.8 96.1407 15.3413 95.522 15C94.9033 14.6373 94.1993 14.456 93.41 14.456C92.962 14.456 92.5247 14.5627 92.098 14.776C91.6713 14.968 91.2873 15.2347 90.946 15.576C90.626 15.896 90.3593 16.2907 90.146 16.76C89.954 17.208 89.858 17.688 89.858 18.2V22.168C89.858 22.7867 89.9753 23.3413 90.21 23.832C90.4447 24.3227 90.754 24.7387 91.138 25.08C91.522 25.4213 91.9487 25.688 92.418 25.88C92.9087 26.0507 93.3887 26.136 93.858 26.136ZM111.576 27V25.368L111.416 25.528C110.882 26.0613 110.264 26.4773 109.56 26.776C108.877 27.0747 108.045 27.224 107.064 27.224C106.317 27.224 105.677 27.1387 105.144 26.968C104.61 26.7973 104.173 26.5627 103.832 26.264C103.49 25.944 103.234 25.5813 103.064 25.176C102.914 24.7707 102.84 24.344 102.84 23.896C102.84 23.1707 103.032 22.5307 103.416 21.976C103.821 21.4213 104.397 20.9307 105.144 20.504C105.89 20.0773 106.797 19.6933 107.864 19.352C108.952 18.9893 110.189 18.6373 111.576 18.296C111.533 17.464 111.362 16.792 111.064 16.28C110.765 15.768 110.413 15.3733 110.008 15.096C109.602 14.7973 109.176 14.6053 108.728 14.52C108.28 14.4133 107.896 14.36 107.576 14.36C107.021 14.36 106.53 14.4453 106.104 14.616C105.698 14.7867 105.336 15.0107 105.016 15.288C104.717 15.544 104.461 15.832 104.248 16.152C104.034 16.4507 103.864 16.7387 103.736 17.016H103.448V14.68C103.618 14.6587 103.778 14.6053 103.928 14.52C104.077 14.4347 104.258 14.3493 104.472 14.264C104.792 14.136 105.229 13.9547 105.784 13.72C106.338 13.464 107.117 13.336 108.12 13.336C109.293 13.336 110.242 13.4853 110.968 13.784C111.693 14.0827 112.248 14.4773 112.632 14.968C113.037 15.4587 113.304 16.024 113.432 16.664C113.56 17.2827 113.624 17.9227 113.624 18.584V24.92C113.624 25.3467 113.72 25.752 113.912 26.136C114.104 26.4987 114.36 26.68 114.68 26.68V27H111.576ZM111.576 23.96V19.384L111.256 19.448C110.744 19.576 110.114 19.7467 109.368 19.96C108.642 20.1733 107.949 20.4507 107.288 20.792C106.626 21.1333 106.061 21.5387 105.592 22.008C105.122 22.4773 104.888 23.0213 104.888 23.64C104.888 24.3227 105.165 24.888 105.72 25.336C106.274 25.784 107 26.008 107.896 26.008C108.6 26.008 109.218 25.8587 109.752 25.56C110.285 25.24 110.776 24.8347 111.224 24.344L111.576 23.96ZM128.409 27C128.046 27 127.705 26.9253 127.385 26.776C127.086 26.6053 126.819 26.424 126.585 26.232C126.307 25.9973 126.051 25.7413 125.817 25.464L121.689 20.152L121.016 20.824V24.984C121.016 25.1333 121.038 25.304 121.081 25.496C121.123 25.688 121.187 25.88 121.273 26.072C121.379 26.2427 121.497 26.392 121.625 26.52C121.753 26.6267 121.902 26.68 122.073 26.68V27H117.913V26.68C118.062 26.68 118.201 26.6267 118.329 26.52C118.457 26.392 118.563 26.2427 118.649 26.072C118.734 25.9013 118.798 25.72 118.841 25.528C118.883 25.336 118.905 25.1547 118.905 24.984V8.696C118.905 8.39733 118.809 8.09867 118.617 7.8C118.425 7.50133 118.169 7.34133 117.849 7.32V7L121.016 6.008V19.352L126.201 14.488C126.307 14.3813 126.361 14.2533 126.361 14.104C126.361 13.9547 126.286 13.88 126.137 13.88V13.56H129.017V13.88C128.889 13.88 128.75 13.912 128.601 13.976C128.473 14.04 128.345 14.1147 128.217 14.2C128.067 14.2853 127.918 14.392 127.769 14.52L123.225 18.744L127.961 24.728C128.238 25.112 128.515 25.4427 128.793 25.72C129.027 25.9547 129.273 26.1787 129.529 26.392C129.806 26.584 130.041 26.68 130.233 26.68V27H128.409ZM134.231 20.536C134.317 21.2827 134.498 21.9973 134.775 22.68C135.053 23.3413 135.415 23.928 135.863 24.44C136.333 24.952 136.898 25.368 137.559 25.688C138.221 25.9867 138.989 26.136 139.863 26.136C140.333 26.136 140.823 26.072 141.335 25.944C141.869 25.7947 142.359 25.592 142.807 25.336C143.255 25.08 143.65 24.7707 143.991 24.408C144.354 24.024 144.599 23.5973 144.727 23.128H145.015V25.528C144.887 25.528 144.738 25.5707 144.567 25.656C144.418 25.7413 144.237 25.848 144.023 25.976C143.597 26.232 143.021 26.5093 142.295 26.808C141.57 27.0853 140.61 27.224 139.415 27.224C138.455 27.224 137.538 27.0853 136.663 26.808C135.81 26.5307 135.053 26.104 134.391 25.528C133.73 24.952 133.197 24.216 132.791 23.32C132.407 22.424 132.215 21.3573 132.215 20.12C132.215 19.3307 132.343 18.5307 132.599 17.72C132.877 16.9093 133.282 16.184 133.815 15.544C134.37 14.8827 135.074 14.3493 135.927 13.944C136.781 13.5387 137.805 13.336 138.999 13.336C140.066 13.336 140.994 13.5173 141.783 13.88C142.594 14.2427 143.255 14.744 143.767 15.384C144.301 16.024 144.695 16.7813 144.951 17.656C145.207 18.5307 145.335 19.4907 145.335 20.536H134.231ZM138.871 14.392C138.125 14.392 137.474 14.5413 136.919 14.84C136.386 15.1387 135.927 15.5227 135.543 15.992C135.159 16.4613 134.861 16.9947 134.647 17.592C134.434 18.1893 134.295 18.7867 134.231 19.384H143.351C143.33 18.7653 143.213 18.1573 142.999 17.56C142.807 16.9627 142.53 16.4293 142.167 15.96C141.805 15.4907 141.346 15.1173 140.791 14.84C140.237 14.5413 139.597 14.392 138.871 14.392ZM155.811 15.896C155.555 15.4693 155.288 15.2027 155.01 15.096C154.733 14.9893 154.413 14.936 154.051 14.936C153.816 14.936 153.56 14.9893 153.283 15.096C153.027 15.2027 152.771 15.3413 152.515 15.512C152.259 15.6827 152.003 15.8747 151.747 16.088C151.512 16.28 151.309 16.4613 151.139 16.632V24.952C151.139 25.1227 151.16 25.304 151.203 25.496C151.245 25.688 151.309 25.88 151.395 26.072C151.501 26.2427 151.608 26.392 151.715 26.52C151.843 26.6267 151.992 26.68 152.163 26.68V27H148.003V26.68C148.152 26.68 148.291 26.6267 148.419 26.52C148.547 26.392 148.653 26.2427 148.739 26.072C148.845 25.88 148.92 25.688 148.963 25.496C149.005 25.304 149.027 25.1227 149.027 24.952V16.024C149.027 15.7253 148.931 15.4267 148.739 15.128C148.547 14.8293 148.269 14.6373 147.907 14.552V14.296L151.139 13.336V15.256C151.331 15.0213 151.533 14.7973 151.747 14.584C151.96 14.3493 152.195 14.1467 152.451 13.976C152.728 13.784 153.027 13.6347 153.347 13.528C153.667 13.4 154.04 13.336 154.467 13.336C154.765 13.336 155.149 13.4 155.619 13.528C156.088 13.656 156.472 13.7947 156.771 13.944L155.811 15.896ZM163.904 31.576C163.605 32.472 163.221 33.08 162.752 33.4C162.304 33.72 161.834 33.88 161.344 33.88C161.024 33.88 160.736 33.8373 160.48 33.752C160.245 33.6667 160.032 33.56 159.84 33.432C159.669 33.3253 159.53 33.2187 159.424 33.112C159.317 33.0053 159.253 32.92 159.232 32.856L160.288 30.264C160.394 30.648 160.501 30.936 160.608 31.128C160.714 31.3413 160.864 31.5333 161.056 31.704C161.248 31.8747 161.482 31.96 161.76 31.96C162.272 31.96 162.677 31.5867 162.976 30.84L164.544 26.904L159.392 15.256C159.285 15 159.104 14.712 158.848 14.392C158.613 14.0507 158.282 13.88 157.856 13.88V13.56H162.08V13.88C161.994 13.88 161.888 13.9547 161.76 14.104C161.632 14.2533 161.568 14.4453 161.568 14.68C161.568 14.872 161.61 15.0427 161.696 15.192L165.632 24.248L169.408 15C169.472 14.8507 169.504 14.712 169.504 14.584C169.504 14.3707 169.429 14.2 169.28 14.072C169.152 13.944 169.013 13.88 168.864 13.88V13.56H171.968V13.88C171.626 13.88 171.328 14.0293 171.072 14.328C170.837 14.6053 170.645 14.9253 170.496 15.288L163.904 31.576Z" fill="#201E1C"/>
<path d="M10 11L16.0622 15.5H3.93782L10 11Z" fill="#201E1C"/>
<path d="M94 24C94 23.1515 93.7083 22.4303 93.125 21.8364C92.5417 21.2424 91.8333 20.9455 91 20.9455C91 21.7939 91.2917 22.5152 91.875 23.1091C92.4583 23.703 93.1667 24 94 24ZM94 21.4291C94.2167 21.4291 94.4 21.3527 94.55 21.2C94.7 21.0473 94.775 20.8606 94.775 20.64V20.5636C94.8417 20.6145 94.9104 20.6527 94.9813 20.6782C95.0521 20.7036 95.1333 20.7164 95.225 20.7164C95.4417 20.7164 95.625 20.64 95.775 20.4873C95.925 20.3345 96 20.1479 96 19.9273C96 19.7576 95.9604 19.6091 95.8813 19.4818C95.8021 19.3545 95.6917 19.2655 95.55 19.2145C95.6917 19.1636 95.8021 19.0745 95.8813 18.9473C95.9604 18.82 96 18.6715 96 18.5018C96 18.2812 95.925 18.0945 95.775 17.9418C95.625 17.7891 95.4417 17.7127 95.225 17.7127C95.1333 17.7127 95.0521 17.7255 94.9813 17.7509C94.9104 17.7764 94.8417 17.8145 94.775 17.8655V17.7891C94.775 17.5685 94.7 17.3818 94.55 17.2291C94.4 17.0764 94.2167 17 94 17C93.7833 17 93.6 17.0764 93.45 17.2291C93.3 17.3818 93.225 17.5685 93.225 17.7891V17.8655C93.1583 17.8145 93.0896 17.7764 93.0187 17.7509C92.9479 17.7255 92.8667 17.7127 92.775 17.7127C92.5583 17.7127 92.375 17.7891 92.225 17.9418C92.075 18.0945 92 18.2812 92 18.5018C92 18.6715 92.0396 18.82 92.1187 18.9473C92.1979 19.0745 92.3083 19.1636 92.45 19.2145C92.3083 19.2655 92.1979 19.3545 92.1187 19.4818C92.0396 19.6091 92 19.7576 92 19.9273C92 20.1479 92.075 20.3345 92.225 20.4873C92.375 20.64 92.5583 20.7164 92.775 20.7164C92.8667 20.7164 92.9479 20.7036 93.0187 20.6782C93.0896 20.6527 93.1583 20.6145 93.225 20.5636V20.64C93.225 20.8606 93.3 21.0473 93.45 21.2C93.6 21.3527 93.7833 21.4291 94 21.4291ZM94 20.0036C93.7833 20.0036 93.6 19.9294 93.45 19.7809C93.3 19.6324 93.225 19.4436 93.225 19.2145C93.225 18.9939 93.3 18.8073 93.45 18.6545C93.6 18.5018 93.7833 18.4255 94 18.4255C94.2167 18.4255 94.4 18.5018 94.55 18.6545C94.7 18.8073 94.775 18.9939 94.775 19.2145C94.775 19.4436 94.7 19.6324 94.55 19.7809C94.4 19.9294 94.2167 20.0036 94 20.0036ZM94 24C94.8333 24 95.5417 23.703 96.125 23.1091C96.7083 22.5152 97 21.7939 97 20.9455C96.1667 20.9455 95.4583 21.2424 94.875 21.8364C94.2917 22.4303 94 23.1515 94 24Z" fill="#201E1C"/>
<path d="M30.388 18.8L30.0686 19.08C29.9755 19.1667 29.8657 19.21 29.7392 19.21C29.6128 19.21 29.503 19.1733 29.4099 19.1C29.3167 19.0267 29.2535 18.9333 29.2202 18.82C29.1869 18.7067 29.1903 18.5867 29.2302 18.46L29.3899 17.96L29.0505 17.76C28.9441 17.7 28.8692 17.6133 28.826 17.5C28.7827 17.3867 28.7777 17.2733 28.811 17.16C28.8443 17.0467 28.9108 16.9583 29.0106 16.895C29.1104 16.8317 29.2235 16.8 29.35 16.8H29.7492L29.869 16.42C29.9089 16.2933 29.9771 16.1917 30.0736 16.115C30.1701 16.0383 30.2749 16 30.388 16C30.5011 16 30.6059 16.0383 30.7024 16.115C30.7989 16.1917 30.8671 16.2933 30.907 16.42L31.0268 16.8H31.4261C31.5525 16.8 31.664 16.8317 31.7604 16.895C31.8569 16.9583 31.9251 17.0467 31.9651 17.16C32.0116 17.28 32.0116 17.3967 31.9651 17.51C31.9185 17.6233 31.8453 17.7067 31.7455 17.76L31.3862 17.96L31.5459 18.46C31.5858 18.5867 31.5891 18.7083 31.5558 18.825C31.5226 18.9417 31.4593 19.0333 31.3662 19.1C31.2664 19.1733 31.1549 19.21 31.0318 19.21C30.9087 19.21 30.8006 19.1667 30.7074 19.08L30.388 18.8ZM30.388 18C30.5011 18 30.596 17.9617 30.6725 17.885C30.749 17.8083 30.7873 17.7133 30.7873 17.6C30.7873 17.4867 30.749 17.3917 30.6725 17.315C30.596 17.2383 30.5011 17.2 30.388 17.2C30.2749 17.2 30.1801 17.2383 30.1036 17.315C30.027 17.3917 29.9888 17.4867 29.9888 17.6C29.9888 17.7133 30.027 17.8083 30.1036 17.885C30.1801 17.9617 30.2749 18 30.388 18ZM28.7112 22.36C28.8642 22.76 28.8143 23.1333 28.5614 23.48C28.3086 23.8267 27.9526 24 27.4934 24C27.2739 24 27.0659 23.9433 26.8696 23.83C26.6733 23.7167 26.5286 23.5667 26.4354 23.38C25.8831 23.46 25.4257 23.3183 25.063 22.955C24.7004 22.5917 24.5523 22.1267 24.6188 21.56C24.4192 21.4467 24.2662 21.2917 24.1597 21.095C24.0532 20.8983 24 20.6733 24 20.42C24 20.0133 24.1847 19.685 24.554 19.435C24.9233 19.185 25.2843 19.1333 25.6369 19.28L26.2558 19.54C26.3889 19.3333 26.5652 19.165 26.7848 19.035C27.0044 18.905 27.2406 18.8333 27.4934 18.82V18.3C27.4934 18.2133 27.5217 18.1417 27.5783 18.085C27.6349 18.0283 27.7064 18 27.7929 18C27.8794 18 27.9509 18.0283 28.0075 18.085C28.064 18.1417 28.0923 18.2133 28.0923 18.3V18.9C28.3385 18.9733 28.5415 19.0883 28.7012 19.245C28.8609 19.4017 28.9973 19.62 29.1104 19.9H29.6893C29.7758 19.9 29.8474 19.9283 29.9039 19.985C29.9605 20.0417 29.9888 20.1133 29.9888 20.2C29.9888 20.2867 29.9605 20.3583 29.9039 20.415C29.8474 20.4717 29.7758 20.5 29.6893 20.5H29.1703C29.157 20.7533 29.0888 20.99 28.9657 21.21C28.8426 21.43 28.6779 21.6067 28.4716 21.74L28.7112 22.36ZM26.2358 22.6C26.2358 22.42 26.2508 22.245 26.2807 22.075C26.3107 21.905 26.3556 21.74 26.4155 21.58C26.2624 21.6533 26.0977 21.705 25.9214 21.735C25.7451 21.765 25.5704 21.7733 25.3974 21.76C25.3974 22.02 25.4722 22.225 25.622 22.375C25.7717 22.525 25.9763 22.6 26.2358 22.6ZM25.4972 20.96C25.7101 20.96 25.8981 20.9333 26.0611 20.88C26.2242 20.8267 26.4354 20.72 26.6949 20.56L25.4972 20.06C25.3042 19.98 25.1395 19.9817 25.0031 20.065C24.8667 20.1483 24.7985 20.28 24.7985 20.46C24.7985 20.6333 24.8551 20.76 24.9682 20.84C25.0813 20.92 25.2576 20.96 25.4972 20.96ZM27.4934 23.2C27.6598 23.2 27.7946 23.1417 27.8977 23.025C28.0008 22.9083 28.0258 22.7867 27.9726 22.66L27.4336 21.3C27.3071 21.5133 27.209 21.7267 27.1391 21.94C27.0692 22.1533 27.0343 22.3467 27.0343 22.52C27.0343 22.74 27.0726 22.9083 27.1491 23.025C27.2256 23.1417 27.3404 23.2 27.4934 23.2ZM28.1522 20.98C28.2188 20.9133 28.272 20.825 28.3119 20.715C28.3518 20.605 28.3718 20.49 28.3718 20.37C28.3718 20.1567 28.3019 19.9767 28.1622 19.83C28.0225 19.6833 27.8494 19.61 27.6432 19.61C27.5234 19.61 27.4103 19.63 27.3038 19.67C27.1973 19.71 27.1075 19.7667 27.0343 19.84L27.8129 20.2L28.1522 20.98Z" fill="#201E1C"/>
<path d="M4 25V16H16V25C12.4362 24.4412 9.75724 24.4677 4 25Z" stroke="#201E1C"/>
<path d="M12 11H13V13.5L12 13V11Z" fill="#201E1C"/>
</svg>
