<svg width="31" height="30" viewBox="0 0 31 30" fill="none" xmlns="http://www.w3.org/2000/svg">
<path d="M18.2195 15.5067L11.2616 9.27325C11.1082 9.13586 11.0263 8.96742 11.0158 8.76792C11.0053 8.56842 11.0872 8.39055 11.2616 8.23433C11.4359 8.07811 11.6292 8 11.8414 8C12.0536 8 12.2469 8.07811 12.4212 8.23433L19.6124 14.6767C19.7552 14.8046 19.8556 14.9354 19.9134 15.0691C19.9711 15.2027 20 15.3486 20 15.5067C20 15.6648 19.9711 15.8106 19.9134 15.9442C19.8556 16.0779 19.7552 16.2087 19.6124 16.3366L12.4212 22.779C12.2679 22.9164 12.0799 22.9898 11.8572 22.9992C11.6345 23.0086 11.4359 22.9352 11.2616 22.779C11.0872 22.6228 11 22.4496 11 22.2595C11 22.0695 11.0872 21.8963 11.2616 21.7401L18.2195 15.5067Z" fill="#201E1C"/>
</svg>
