<?xml version="1.0" standalone="no"?>
<!DOCTYPE svg PUBLIC "-//W3C//DTD SVG 20010904//EN"
 "http://www.w3.org/TR/2001/REC-SVG-20010904/DTD/svg10.dtd">
<svg version="1.0" xmlns="http://www.w3.org/2000/svg"
 width="700.000000pt" height="700.000000pt" viewBox="0 0 700.000000 700.000000"
 preserveAspectRatio="xMidYMid meet">
<metadata>
Created by potrace 1.14, written by Peter Selinger 2001-2017
</metadata>
<g transform="translate(0.000000,700.000000) scale(0.100000,-0.100000)"
fill="#000000" stroke="none">
<path d="M1449 6996 c-2 -2 -29 -7 -59 -10 -97 -11 -324 -69 -345 -88 -5 -4
-16 -8 -25 -8 -31 0 -289 -136 -345 -182 -5 -5 -35 -27 -65 -50 -132 -101
-296 -288 -391 -448 -78 -131 -160 -346 -185 -480 -32 -177 -32 -178 -30
-2255 1 -1133 5 -2078 9 -2100 70 -371 197 -633 427 -878 184 -197 474 -371
730 -437 223 -58 60 -54 2305 -55 1133 0 2092 4 2130 8 39 4 106 17 150 28 44
11 90 22 102 24 49 11 213 79 291 120 193 103 417 294 532 452 165 230 266
476 305 747 11 73 13 487 11 2146 -1 1130 -5 2066 -8 2080 -3 14 -9 45 -12 70
-21 133 -71 281 -147 435 -229 465 -666 782 -1199 872 -45 7 -4173 16 -4181 9z"/>
</g>
</svg>
